<?xml version="1.0" standalone="no"?>
<!DOCTYPE svg PUBLIC "-//W3C//DTD SVG 20010904//EN"
 "http://www.w3.org/TR/2001/REC-SVG-20010904/DTD/svg10.dtd">
<svg version="1.0" xmlns="http://www.w3.org/2000/svg"
 width="262.000000pt" height="262.000000pt" viewBox="0 0 262.000000 262.000000"
 preserveAspectRatio="xMidYMid meet">
<metadata>
Created by potrace 1.14, written by Peter Selinger 2001-2017
</metadata>
<g transform="translate(0.000000,262.000000) scale(0.100000,-0.100000)"
fill="#000000" stroke="none">
<path d="M0 1830 l0 -770 35 0 c32 0 35 2 35 31 0 18 4 28 10 24 6 -4 8 -15 5
-25 -3 -10 -1 -22 6 -26 13 -8 -42 -34 -72 -34 -18 0 -18 -20 -19 -505 l0
-505 1310 0 1310 0 0 525 c0 518 0 525 -20 525 -16 0 -20 7 -20 34 0 66 26 92
33 34 2 -18 5 304 5 715 l2 748 -186 -3 -185 -3 4 -23 c4 -22 2 -23 -46 -21
-33 2 -52 -1 -55 -9 -5 -17 -32 -15 -32 3 0 10 -10 15 -29 15 -16 0 -36 -7
-45 -15 -8 -8 -18 -15 -23 -15 -13 0 -43 38 -43 55 0 22 -232 22 -250 0 -7 -8
-18 -14 -24 -13 -13 2 -84 -11 -106 -19 -32 -13 -54 -13 -61 -1 -10 16 8 28
43 28 15 0 30 5 33 11 5 7 -118 9 -407 6 -396 -5 -480 -9 -504 -28 -5 -4 -44
-14 -85 -20 -40 -7 -86 -18 -101 -26 -15 -7 -45 -13 -67 -13 -26 0 -43 -6 -49
-16 -6 -12 -23 -14 -73 -12 -37 2 -63 7 -61 13 2 6 33 17 70 26 63 15 67 17
64 42 -3 24 -1 26 31 20 20 -3 37 -1 41 6 5 8 -10 11 -49 11 -40 0 -57 -4 -61
-15 -4 -10 -20 -15 -45 -15 -29 0 -41 -5 -50 -21 -11 -22 -11 -22 -36 6 -21
22 -23 29 -12 36 9 5 -32 9 -103 9 l-118 0 0 -770z m1347 738 c163 1 173 0
173 -17 0 -23 -15 -29 -87 -38 -45 -5 -54 -4 -48 7 6 10 1 11 -26 5 -19 -5
-126 -9 -238 -11 -131 -2 -206 -6 -210 -13 -15 -24 -184 -41 -197 -20 -11 18
12 31 61 33 28 1 49 7 55 16 6 10 29 15 67 16 32 1 66 5 76 9 9 4 24 2 32 -5
13 -10 19 -10 33 4 22 19 53 21 70 4 10 -9 16 -9 29 4 9 10 21 14 27 11 5 -4
88 -6 183 -5z m607 -26 c13 -22 -15 -35 -85 -37 -102 -3 -176 -13 -198 -25
-11 -5 -27 -7 -37 -3 -10 4 -20 0 -26 -10 -10 -19 -78 -24 -78 -7 0 6 7 10 15
10 8 0 15 5 15 10 0 6 13 10 29 10 16 0 34 7 41 15 7 9 21 13 35 9 13 -3 28 1
37 9 8 9 28 17 44 20 53 8 203 7 208 -1z m-1293 -62 c41 0 42 -1 27 -17 -14
-13 -22 -14 -42 -5 -14 6 -41 8 -60 5 -39 -6 -46 2 -19 22 12 9 24 10 35 4 9
-5 36 -9 59 -9z m1669 6 c0 -11 -19 -15 -25 -6 -3 5 1 10 9 10 9 0 16 -2 16
-4z m-995 -26 c0 -12 -20 -16 -113 -18 -63 -1 -120 2 -130 7 -15 9 -14 11 8
11 96 4 173 10 178 15 12 12 57 0 57 -15z m50 10 c-3 -5 -10 -10 -16 -10 -5 0
-9 5 -9 10 0 6 7 10 16 10 8 0 12 -4 9 -10z m135 -10 c0 -15 -38 -32 -45 -20
-3 5 -3 15 0 20 8 13 45 13 45 0z m-93 -52 c-2 -7 -20 -13 -40 -13 -43 0 -49
12 -9 18 50 7 54 7 49 -5z m-1054 -5 c-7 -2 -21 -2 -30 0 -10 3 -4 5 12 5 17
0 24 -2 18 -5z m132 -14 c-18 -5 -33 -5 -39 1 -7 7 4 10 30 9 39 -1 39 -1 9
-10z m100 1 c-3 -5 -13 -10 -21 -10 -8 0 -12 5 -9 10 3 6 13 10 21 10 8 0 12
-4 9 -10z m255 0 c0 -6 -7 -13 -15 -16 -20 -8 -48 3 -40 16 8 13 55 13 55 0z
m-86 -10 c-15 -15 -74 -24 -74 -12 0 9 21 15 70 21 9 0 11 -2 4 -9z m901 -40
c-3 -5 -15 -10 -26 -10 -11 0 -17 5 -14 10 3 6 15 10 26 10 11 0 17 -4 14 -10z
m232 -16 c-3 -3 -12 -4 -19 -1 -8 3 -5 6 6 6 11 1 17 -2 13 -5z m-1667 -1188
c0 -11 -19 -15 -25 -6 -3 5 1 10 9 10 9 0 16 -2 16 -4z m1730 -106 c0 -73 -2
-80 -20 -80 -18 0 -20 7 -20 73 0 76 4 87 27 87 10 0 13 -20 13 -80z m312 -47
c-3 -16 -7 -22 -10 -15 -4 13 4 42 11 42 2 0 2 -12 -1 -27z m136 -325 c-3 -7
-13 -15 -24 -17 -16 -3 -17 -1 -5 13 16 19 34 21 29 4z"/>
<path d="M1450 2540 c-12 -8 -9 -10 13 -10 16 0 26 4 22 10 -8 12 -16 12 -35
0z"/>
</g>
</svg>
